<svg width="96" height="105" xmlns="http://www.w3.org/2000/svg" xmlns:xlink="http://www.w3.org/1999/xlink" overflow="hidden"><defs><clipPath id="clip0"><rect x="592" y="303" width="96" height="105"/></clipPath><clipPath id="clip1"><rect x="592" y="312" width="96" height="96"/></clipPath><clipPath id="clip2"><rect x="592" y="312" width="96" height="96"/></clipPath><clipPath id="clip3"><rect x="592" y="312" width="96" height="97"/></clipPath></defs><g clip-path="url(#clip0)" transform="translate(-592 -303)"><g clip-path="url(#clip1)"><g clip-path="url(#clip2)"><g clip-path="url(#clip3)"><path d="M624.437 350.541C622.248 348.455 619.119 347.791 616.272 348.808 612.771 350.058 610.419 353.395 610.419 357.112L610.419 360.08C610.419 364.08 613.674 367.336 617.674 367.336 620.324 367.336 622.762 365.892 624.036 363.57L625.923 360.129C627.656 356.97 627.045 353.026 624.437 350.541ZM622.645 358.33 620.758 361.771C620.139 362.897 618.959 363.597 617.674 363.597 615.735 363.597 614.158 362.019 614.158 360.08L614.158 357.112C614.158 354.972 615.513 353.049 617.529 352.329 617.997 352.162 618.479 352.08 618.956 352.08 620.019 352.08 621.057 352.485 621.857 353.248 623.24 354.566 623.564 356.655 622.645 358.33Z" fill="#FFFFFF" transform="matrix(1.00292 0 0 1 17 18.1371)"/><path d="M651.384 381.421 646.163 386.642C645.434 387.372 645.433 388.556 646.163 389.287 646.528 389.652 647.007 389.834 647.486 389.834 647.963 389.834 648.442 389.652 648.807 389.287L654.028 384.065C654.758 383.335 654.758 382.15 654.028 381.421 653.299 380.691 652.115 380.691 651.384 381.421Z" fill="#FFFFFF" transform="matrix(1.00292 0 0 1 17 18.1371)"/><path d="M666.771 340.694C665.323 339.476 663.425 338.963 661.56 339.287 658.491 339.822 656.264 342.47 656.264 345.585L656.264 349.261C654.036 344.444 650.818 340.096 646.773 336.519L650.091 332.307C651.622 333.114 653.365 333.574 655.214 333.574 660.665 333.574 665.303 329.525 666.115 324.214 667.962 322.537 669.043 320.128 669.043 317.617 669.043 312.708 665.049 308.716 660.141 308.716 657.63 308.716 655.221 309.796 653.544 311.642 648.233 312.455 644.184 317.093 644.184 322.543 644.184 325.431 645.301 328.062 647.124 330.03L643.855 334.179C637.792 329.784 630.57 327.242 623.058 326.879L623.058 321.69C624.736 322.659 626.655 323.183 628.668 323.183 634.864 323.183 639.905 318.144 639.905 311.947 639.905 307.112 636.84 302.875 632.341 301.326 630.36 297.007 625.994 294.166 621.188 294.166 616.382 294.166 612.015 297.007 610.036 301.326 605.537 302.875 602.472 307.112 602.472 311.947 602.472 318.144 607.512 323.183 613.707 323.183 615.721 323.183 617.641 322.659 619.319 321.69L619.319 326.878C611.807 327.241 604.585 329.783 598.521 334.179L595.252 330.03C597.076 328.062 598.192 325.431 598.192 322.543 598.192 317.093 594.143 312.455 588.834 311.642 587.156 309.796 584.747 308.716 582.235 308.716 577.327 308.716 573.334 312.708 573.334 317.617 573.334 320.128 574.415 322.536 576.261 324.214 577.074 329.524 581.711 333.574 587.161 333.574 589.011 333.574 590.753 333.114 592.286 332.307L595.604 336.518C591.559 340.095 588.341 344.444 586.113 349.26L586.113 345.585C586.113 342.47 583.884 339.822 580.815 339.287 578.951 338.963 577.053 339.476 575.605 340.694 574.157 341.911 573.328 343.694 573.328 345.585L573.328 356.216C573.328 364.489 576.549 372.266 582.399 378.116L593.569 389.287C593.935 389.652 594.413 389.834 594.892 389.834 595.371 389.834 595.848 389.652 596.213 389.287 596.943 388.556 596.943 387.373 596.213 386.642L585.044 375.473C579.9 370.329 577.067 363.49 577.067 356.216L577.067 345.585C577.067 344.8 577.412 344.061 578.012 343.555 578.613 343.05 579.401 342.837 580.175 342.972 581.448 343.194 582.373 344.293 582.373 345.585L582.373 357.454C582.373 361.27 583.859 364.858 586.557 367.556L596.698 377.696 597.451 378.45C598.181 379.18 599.365 379.18 600.095 378.45 600.826 377.719 600.826 376.536 600.095 375.806L589.488 365.198C588.243 363.954 588.243 361.93 589.488 360.686 590.731 359.442 592.755 359.442 594 360.686L602.5 369.186C602.851 369.538 603.326 369.735 603.822 369.735 607.444 369.735 610.849 371.146 613.411 373.706 617.221 377.516 619.319 382.581 619.319 387.969 619.319 389.002 620.156 389.839 621.188 389.839 622.221 389.839 623.058 389.002 623.058 387.969 623.058 382.581 625.157 377.516 628.967 373.706 631.527 371.146 634.932 369.735 638.555 369.735 639.051 369.735 639.527 369.538 639.877 369.186L648.377 360.686C649.621 359.442 651.645 359.442 652.89 360.686 654.133 361.93 654.133 363.954 652.89 365.198L642.282 375.806C641.552 376.536 641.552 377.719 642.282 378.45 642.647 378.814 643.125 378.998 643.604 378.998 644.082 378.998 644.561 378.814 644.926 378.45L645.679 377.696 655.819 367.556C658.517 364.858 660.003 361.27 660.003 357.454L660.003 345.585C660.003 344.293 660.928 343.193 662.202 342.973 662.974 342.837 663.763 343.049 664.364 343.555 664.965 344.061 665.31 344.8 665.31 345.585L665.31 356.216C665.31 360.72 664.178 365.196 662.037 369.159 661.547 370.068 661.885 371.201 662.793 371.693 663.701 372.182 664.836 371.844 665.327 370.937 667.761 366.429 669.049 361.338 669.049 356.216L669.049 345.585C669.049 343.694 668.218 341.911 666.771 340.694ZM654.647 315.276C655.185 315.236 655.679 314.963 656.002 314.532 656.988 313.211 658.496 312.455 660.141 312.455 662.987 312.455 665.304 314.771 665.304 317.617 665.304 319.262 664.546 320.769 663.226 321.757 662.794 322.08 662.522 322.572 662.481 323.111 662.192 326.881 658.999 329.835 655.214 329.835 651.194 329.835 647.923 326.565 647.923 322.543 647.923 318.758 650.877 315.566 654.647 315.276ZM606.211 311.947C606.211 308.502 608.541 305.512 611.878 304.676 612.48 304.526 612.968 304.087 613.181 303.504 614.403 300.155 617.622 297.905 621.188 297.905 624.755 297.905 627.973 300.155 629.196 303.504 629.408 304.086 629.896 304.526 630.498 304.676 633.835 305.512 636.166 308.502 636.166 311.947 636.166 316.081 632.802 319.444 628.668 319.444 626.671 319.444 624.811 318.671 623.417 317.296L626.802 313.91C627.532 313.181 627.532 311.996 626.802 311.266 626.072 310.536 624.888 310.536 624.158 311.266L623.058 312.367 623.058 306.077C623.058 305.044 622.22 304.208 621.188 304.208 620.155 304.208 619.319 305.044 619.319 306.077L619.319 314.252 616.34 311.274C615.611 310.544 614.427 310.544 613.696 311.274 612.966 312.004 612.966 313.189 613.696 313.918L617.926 318.147C616.7 318.986 615.245 319.444 613.707 319.444 609.574 319.444 606.211 316.081 606.211 311.947ZM579.896 323.111C579.854 322.572 579.583 322.079 579.15 321.757 577.831 320.77 577.074 319.262 577.074 317.617 577.074 314.77 579.389 312.455 582.235 312.455 583.88 312.455 585.389 313.211 586.375 314.532 586.698 314.963 587.191 315.236 587.73 315.276 591.5 315.566 594.453 318.758 594.453 322.543 594.453 326.564 591.183 329.834 587.161 329.834 583.377 329.835 580.185 326.881 579.896 323.111ZM587.152 357.755C588.253 352.88 590.379 348.409 593.279 344.563L598.675 344.563C601.219 344.563 603.289 346.632 603.289 349.178 603.289 350.633 602.591 352.018 601.421 352.885 599.442 354.352 598.031 356.442 597.374 358.773L596.643 358.043C594.041 355.441 589.87 355.346 587.152 357.755ZM637.763 366.013C633.439 366.207 629.402 367.983 626.322 371.063 624.102 373.282 622.373 375.863 621.188 378.671 620.004 375.863 618.275 373.282 616.055 371.063 612.975 367.983 608.938 366.207 604.615 366.013L600.696 362.095 600.696 361.747C600.696 359.448 601.799 357.258 603.646 355.889 605.764 354.321 607.029 351.812 607.029 349.177 607.029 344.571 603.281 340.823 598.675 340.823L596.532 340.823C602.901 334.47 611.672 330.571 621.188 330.571 627.698 330.571 633.858 332.394 639.139 335.579 633.754 337.199 629.818 342.201 629.818 348.108 629.818 352.574 632.06 356.685 635.814 359.104L639.702 361.609C640.196 361.928 640.631 362.325 640.992 362.782ZM645.734 358.043 643.647 360.129C643.09 359.491 642.446 358.93 641.727 358.466L637.84 355.962C635.159 354.234 633.557 351.297 633.557 348.108 633.557 342.956 637.749 338.764 642.901 338.764L643.597 338.764C649.319 343.564 653.511 350.169 655.226 357.755 652.508 355.346 648.335 355.44 645.734 358.043Z" fill="#FFFFFF" transform="matrix(1.00292 0 0 1 17 18.1371)"/><path d="M658.656 374.926C658.162 374.926 657.68 375.124 657.333 375.472 656.985 375.819 656.786 376.301 656.786 376.795 656.786 377.287 656.985 377.767 657.333 378.116 657.682 378.465 658.162 378.665 658.656 378.665 659.148 378.665 659.628 378.465 659.978 378.116 660.326 377.767 660.526 377.287 660.526 376.795 660.526 376.301 660.326 375.821 659.978 375.472 659.628 375.124 659.148 374.926 658.656 374.926Z" fill="#FFFFFF" transform="matrix(1.00292 0 0 1 17 18.1371)"/></g></g></g></g></svg>